<mxfile host="65bd71144e">
    <diagram id="5Ujupbhn89dEGrXiVJIM" name="Register">
        <mxGraphModel dx="808" dy="467" grid="1" gridSize="10" guides="1" tooltips="1" connect="1" arrows="1" fold="1" page="1" pageScale="1" pageWidth="850" pageHeight="1100" math="0" shadow="0">
            <root>
                <mxCell id="0"/>
                <mxCell id="1" parent="0"/>
                <mxCell id="2" value="Sơ đồ hoạt động chức năng đăng ký" style="swimlane;childLayout=stackLayout;resizeParent=1;resizeParentMax=0;startSize=20;html=1;" parent="1" vertex="1">
                    <mxGeometry x="170" y="50" width="460" height="590" as="geometry"/>
                </mxCell>
                <mxCell id="3" value="User" style="swimlane;startSize=20;html=1;" parent="2" vertex="1">
                    <mxGeometry y="20" width="210" height="570" as="geometry"/>
                </mxCell>
                <mxCell id="11" value="Nhập Email và mật khẩu" style="rounded=1;whiteSpace=wrap;html=1;" parent="3" vertex="1">
                    <mxGeometry x="25" y="110" width="100" height="40" as="geometry"/>
                </mxCell>
                <mxCell id="27" value="" style="ellipse;html=1;shape=startState;fillColor=#000000;strokeColor=#ff0000;" parent="3" vertex="1">
                    <mxGeometry x="60" y="30" width="30" height="30" as="geometry"/>
                </mxCell>
                <mxCell id="28" value="" style="edgeStyle=orthogonalEdgeStyle;html=1;verticalAlign=bottom;endArrow=open;endSize=8;strokeColor=#ff0000;entryX=0.5;entryY=0;entryDx=0;entryDy=0;" parent="3" source="27" target="11" edge="1">
                    <mxGeometry relative="1" as="geometry">
                        <mxPoint x="155" y="130" as="targetPoint"/>
                    </mxGeometry>
                </mxCell>
                <mxCell id="12" value="" style="endArrow=classic;html=1;exitX=1;exitY=0.5;exitDx=0;exitDy=0;entryX=0;entryY=0.5;entryDx=0;entryDy=0;" parent="2" source="11" target="13" edge="1">
                    <mxGeometry width="50" height="50" relative="1" as="geometry">
                        <mxPoint x="90" y="260" as="sourcePoint"/>
                        <mxPoint x="180" y="150" as="targetPoint"/>
                    </mxGeometry>
                </mxCell>
                <mxCell id="16" value="Thiếu thông tin đăng lý&lt;br&gt;Email đã tồn tại&lt;br&gt;Email không đúng định dạng" style="html=1;verticalAlign=bottom;endArrow=open;dashed=1;endSize=8;entryX=0.5;entryY=1;entryDx=0;entryDy=0;exitX=0;exitY=0.5;exitDx=0;exitDy=0;" parent="2" source="15" target="11" edge="1">
                    <mxGeometry x="-0.0667" y="11" relative="1" as="geometry">
                        <mxPoint x="110" y="260" as="sourcePoint"/>
                        <mxPoint x="30" y="260" as="targetPoint"/>
                        <mxPoint as="offset"/>
                    </mxGeometry>
                </mxCell>
                <mxCell id="4" value="System" style="swimlane;startSize=20;html=1;" parent="2" vertex="1">
                    <mxGeometry x="210" y="20" width="250" height="570" as="geometry"/>
                </mxCell>
                <mxCell id="13" value="Nhận thông tin đăng ký" style="rounded=1;whiteSpace=wrap;html=1;" parent="4" vertex="1">
                    <mxGeometry x="75" y="110" width="100" height="40" as="geometry"/>
                </mxCell>
                <mxCell id="15" value="Kiểm tra&amp;nbsp;" style="rhombus;whiteSpace=wrap;html=1;" parent="4" vertex="1">
                    <mxGeometry x="75" y="190" width="100" height="70" as="geometry"/>
                </mxCell>
                <mxCell id="14" value="" style="endArrow=classic;html=1;exitX=0.5;exitY=1;exitDx=0;exitDy=0;entryX=0.5;entryY=0;entryDx=0;entryDy=0;" parent="4" source="13" target="15" edge="1">
                    <mxGeometry width="50" height="50" relative="1" as="geometry">
                        <mxPoint x="-70" y="310" as="sourcePoint"/>
                        <mxPoint x="90" y="190" as="targetPoint"/>
                    </mxGeometry>
                </mxCell>
                <mxCell id="20" value="" style="endArrow=classic;html=1;exitX=0.5;exitY=1;exitDx=0;exitDy=0;entryX=0.5;entryY=0;entryDx=0;entryDy=0;" parent="4" source="15" target="21" edge="1">
                    <mxGeometry width="50" height="50" relative="1" as="geometry">
                        <mxPoint x="135" y="270" as="sourcePoint"/>
                        <mxPoint x="125" y="300" as="targetPoint"/>
                    </mxGeometry>
                </mxCell>
                <mxCell id="21" value="Thông báo đăng ký thành công" style="rounded=1;whiteSpace=wrap;html=1;" parent="4" vertex="1">
                    <mxGeometry x="75" y="300" width="100" height="40" as="geometry"/>
                </mxCell>
                <mxCell id="23" value="" style="endArrow=classic;html=1;exitX=0.5;exitY=1;exitDx=0;exitDy=0;entryX=0.5;entryY=0;entryDx=0;entryDy=0;" parent="4" source="21" target="24" edge="1">
                    <mxGeometry width="50" height="50" relative="1" as="geometry">
                        <mxPoint x="124.5" y="350" as="sourcePoint"/>
                        <mxPoint x="125" y="380" as="targetPoint"/>
                    </mxGeometry>
                </mxCell>
                <mxCell id="24" value="" style="shape=datastore;whiteSpace=wrap;html=1;" parent="4" vertex="1">
                    <mxGeometry x="95" y="370" width="60" height="60" as="geometry"/>
                </mxCell>
                <mxCell id="26" value="" style="ellipse;html=1;shape=endState;fillColor=#000000;strokeColor=#ff0000;" parent="4" vertex="1">
                    <mxGeometry x="110" y="480" width="30" height="30" as="geometry"/>
                </mxCell>
                <mxCell id="25" value="" style="endArrow=classic;html=1;exitX=0.5;exitY=1;exitDx=0;exitDy=0;" parent="4" source="24" target="26" edge="1">
                    <mxGeometry width="50" height="50" relative="1" as="geometry">
                        <mxPoint x="135" y="350" as="sourcePoint"/>
                        <mxPoint x="125" y="480" as="targetPoint"/>
                    </mxGeometry>
                </mxCell>
            </root>
        </mxGraphModel>
    </diagram>
    <diagram id="nhtBb6THCBNPhbd0uZjh" name="Login">
        <mxGraphModel dx="808" dy="467" grid="1" gridSize="10" guides="1" tooltips="1" connect="1" arrows="1" fold="1" page="1" pageScale="1" pageWidth="850" pageHeight="1100" math="0" shadow="0">
            <root>
                <mxCell id="0"/>
                <mxCell id="1" parent="0"/>
                <mxCell id="-ehZkE86zxHvedlksgDy-1" value="Sơ đồ hoạt động chức năng đăng nhập" style="swimlane;childLayout=stackLayout;resizeParent=1;resizeParentMax=0;startSize=20;html=1;strokeColor=none;" parent="1" vertex="1">
                    <mxGeometry x="200" y="10" width="640" height="730" as="geometry"/>
                </mxCell>
                <mxCell id="-ehZkE86zxHvedlksgDy-2" value="User" style="swimlane;startSize=20;html=1;strokeColor=#FFFFFF;" parent="-ehZkE86zxHvedlksgDy-1" vertex="1">
                    <mxGeometry y="20" width="320" height="710" as="geometry"/>
                </mxCell>
                <mxCell id="-ehZkE86zxHvedlksgDy-6" value="" style="ellipse;html=1;shape=startState;fillColor=#000000;strokeColor=#ff0000;" parent="-ehZkE86zxHvedlksgDy-2" vertex="1">
                    <mxGeometry x="119.99999999999955" y="30" width="30" height="30" as="geometry"/>
                </mxCell>
                <mxCell id="-ehZkE86zxHvedlksgDy-7" value="" style="edgeStyle=orthogonalEdgeStyle;html=1;verticalAlign=bottom;endArrow=open;endSize=8;strokeColor=#ff0000;entryX=0.5;entryY=0;entryDx=0;entryDy=0;" parent="-ehZkE86zxHvedlksgDy-2" source="-ehZkE86zxHvedlksgDy-6" target="-ehZkE86zxHvedlksgDy-8" edge="1">
                    <mxGeometry relative="1" as="geometry">
                        <mxPoint x="134.99999999999955" y="120" as="targetPoint"/>
                    </mxGeometry>
                </mxCell>
                <mxCell id="-ehZkE86zxHvedlksgDy-8" value="Nhập thông tin đăng nhập" style="rounded=1;whiteSpace=wrap;html=1;arcSize=40;fontColor=#000000;fillColor=#ffffc0;strokeColor=none;" parent="-ehZkE86zxHvedlksgDy-2" vertex="1">
                    <mxGeometry x="74.99999999999955" y="120" width="120" height="40" as="geometry"/>
                </mxCell>
                <mxCell id="-ehZkE86zxHvedlksgDy-23" value="Thông báo đăng nhập thất bại" style="rounded=1;whiteSpace=wrap;html=1;arcSize=40;fontColor=#000000;fillColor=#ffffc0;strokeColor=none;" parent="-ehZkE86zxHvedlksgDy-2" vertex="1">
                    <mxGeometry x="260" y="435" width="120" height="40" as="geometry"/>
                </mxCell>
                <mxCell id="-ehZkE86zxHvedlksgDy-24" value="" style="edgeStyle=orthogonalEdgeStyle;html=1;verticalAlign=bottom;endArrow=open;endSize=8;strokeColor=#e7dfdf;fontColor=#000000;entryX=0.25;entryY=1;entryDx=0;entryDy=0;exitX=0;exitY=0.5;exitDx=0;exitDy=0;" parent="-ehZkE86zxHvedlksgDy-2" source="-ehZkE86zxHvedlksgDy-23" target="-ehZkE86zxHvedlksgDy-8" edge="1">
                    <mxGeometry relative="1" as="geometry">
                        <mxPoint x="280" y="530" as="targetPoint"/>
                    </mxGeometry>
                </mxCell>
                <mxCell id="-ehZkE86zxHvedlksgDy-9" value="" style="edgeStyle=orthogonalEdgeStyle;html=1;verticalAlign=bottom;endArrow=open;endSize=8;strokeColor=#FFFFFF;entryX=0;entryY=0.5;entryDx=0;entryDy=0;" parent="-ehZkE86zxHvedlksgDy-1" source="-ehZkE86zxHvedlksgDy-8" target="-ehZkE86zxHvedlksgDy-10" edge="1">
                    <mxGeometry relative="1" as="geometry">
                        <mxPoint x="419.99999999999955" y="160" as="targetPoint"/>
                    </mxGeometry>
                </mxCell>
                <mxCell id="-ehZkE86zxHvedlksgDy-13" value="Thông tin không đúng định dạng&lt;br&gt;Thiếu thông tin&lt;br&gt;" style="edgeStyle=orthogonalEdgeStyle;html=1;align=left;verticalAlign=bottom;endArrow=open;endSize=8;strokeColor=#efe6e6;entryX=0.75;entryY=1;entryDx=0;entryDy=0;" parent="-ehZkE86zxHvedlksgDy-1" source="-ehZkE86zxHvedlksgDy-12" target="-ehZkE86zxHvedlksgDy-8" edge="1">
                    <mxGeometry x="0.0278" y="-10" relative="1" as="geometry">
                        <mxPoint x="549.9999999999995" y="290" as="targetPoint"/>
                        <mxPoint as="offset"/>
                    </mxGeometry>
                </mxCell>
                <mxCell id="-ehZkE86zxHvedlksgDy-18" value="Không tìm thấy" style="edgeStyle=orthogonalEdgeStyle;html=1;align=left;verticalAlign=bottom;endArrow=open;endSize=8;strokeColor=#FFFFFF;fontColor=#faf5f5;entryX=1;entryY=0.5;entryDx=0;entryDy=0;" parent="-ehZkE86zxHvedlksgDy-1" source="-ehZkE86zxHvedlksgDy-17" target="-ehZkE86zxHvedlksgDy-23" edge="1">
                    <mxGeometry x="1" y="-27" relative="1" as="geometry">
                        <mxPoint x="330" y="475" as="targetPoint"/>
                        <mxPoint x="-10" y="2" as="offset"/>
                    </mxGeometry>
                </mxCell>
                <mxCell id="-ehZkE86zxHvedlksgDy-3" value="System" style="swimlane;startSize=20;html=1;" parent="-ehZkE86zxHvedlksgDy-1" vertex="1">
                    <mxGeometry x="320" y="20" width="320" height="710" as="geometry"/>
                </mxCell>
                <mxCell id="-ehZkE86zxHvedlksgDy-10" value="Ghi nhận thông tin" style="rounded=1;whiteSpace=wrap;html=1;arcSize=40;fontColor=#000000;fillColor=#ffffc0;strokeColor=none;" parent="-ehZkE86zxHvedlksgDy-3" vertex="1">
                    <mxGeometry x="99.99999999999955" y="120" width="120" height="40" as="geometry"/>
                </mxCell>
                <mxCell id="-ehZkE86zxHvedlksgDy-11" value="" style="edgeStyle=orthogonalEdgeStyle;html=1;verticalAlign=bottom;endArrow=open;endSize=8;strokeColor=#FFFFFF;entryX=0.5;entryY=0;entryDx=0;entryDy=0;" parent="-ehZkE86zxHvedlksgDy-3" source="-ehZkE86zxHvedlksgDy-10" target="-ehZkE86zxHvedlksgDy-12" edge="1">
                    <mxGeometry relative="1" as="geometry">
                        <mxPoint x="159.99999999999955" y="240" as="targetPoint"/>
                    </mxGeometry>
                </mxCell>
                <mxCell id="-ehZkE86zxHvedlksgDy-12" value="Kiêm tra thông tin" style="rhombus;whiteSpace=wrap;html=1;fillColor=#ffffc0;strokeColor=#f7f7f7;fontColor=#000000;" parent="-ehZkE86zxHvedlksgDy-3" vertex="1">
                    <mxGeometry x="105" y="230" width="110" height="80" as="geometry"/>
                </mxCell>
                <mxCell id="-ehZkE86zxHvedlksgDy-14" value="Đủ thông tin&lt;br&gt;Đúng định dạng" style="edgeStyle=orthogonalEdgeStyle;html=1;align=left;verticalAlign=top;endArrow=open;endSize=8;strokeColor=#FFFFFF;entryX=0.5;entryY=0;entryDx=0;entryDy=0;" parent="-ehZkE86zxHvedlksgDy-3" source="-ehZkE86zxHvedlksgDy-12" target="-ehZkE86zxHvedlksgDy-15" edge="1">
                    <mxGeometry x="-1" relative="1" as="geometry">
                        <mxPoint x="159.99999999999955" y="360" as="targetPoint"/>
                    </mxGeometry>
                </mxCell>
                <mxCell id="-ehZkE86zxHvedlksgDy-15" value="Đưa thông tin xuống sever" style="rounded=1;whiteSpace=wrap;html=1;arcSize=40;fontColor=#000000;fillColor=#ffffc0;strokeColor=none;" parent="-ehZkE86zxHvedlksgDy-3" vertex="1">
                    <mxGeometry x="99.99999999999955" y="360" width="120" height="40" as="geometry"/>
                </mxCell>
                <mxCell id="-ehZkE86zxHvedlksgDy-17" value="Kiểm tra thông tin" style="rhombus;whiteSpace=wrap;html=1;fillColor=#ffffc0;strokeColor=none;fontColor=#000000;" parent="-ehZkE86zxHvedlksgDy-3" vertex="1">
                    <mxGeometry x="105" y="430" width="110" height="50" as="geometry"/>
                </mxCell>
                <mxCell id="-ehZkE86zxHvedlksgDy-19" value="Tìm thấy" style="edgeStyle=orthogonalEdgeStyle;html=1;align=left;verticalAlign=top;endArrow=open;endSize=8;strokeColor=#FFFFFF;fontColor=#FFFFFF;entryX=0.5;entryY=0;entryDx=0;entryDy=0;" parent="-ehZkE86zxHvedlksgDy-3" source="-ehZkE86zxHvedlksgDy-17" target="-ehZkE86zxHvedlksgDy-31" edge="1">
                    <mxGeometry x="-1" relative="1" as="geometry">
                        <mxPoint x="160" y="540" as="targetPoint"/>
                    </mxGeometry>
                </mxCell>
                <mxCell id="-ehZkE86zxHvedlksgDy-22" value="" style="edgeStyle=orthogonalEdgeStyle;html=1;verticalAlign=bottom;endArrow=open;endSize=8;strokeColor=#f9f5f5;entryX=0.5;entryY=0;entryDx=0;entryDy=0;exitX=0.5;exitY=1;exitDx=0;exitDy=0;" parent="-ehZkE86zxHvedlksgDy-3" source="-ehZkE86zxHvedlksgDy-15" target="-ehZkE86zxHvedlksgDy-17" edge="1">
                    <mxGeometry relative="1" as="geometry">
                        <mxPoint x="109.99999999999955" y="150" as="targetPoint"/>
                        <mxPoint x="-75.00000000000045" y="150" as="sourcePoint"/>
                    </mxGeometry>
                </mxCell>
                <mxCell id="-ehZkE86zxHvedlksgDy-31" value="Thông báo đăng nhập thành công" style="rounded=1;whiteSpace=wrap;html=1;arcSize=40;fontColor=#000000;fillColor=#ffffc0;strokeColor=none;" parent="-ehZkE86zxHvedlksgDy-3" vertex="1">
                    <mxGeometry x="100" y="530" width="120" height="40" as="geometry"/>
                </mxCell>
                <mxCell id="-ehZkE86zxHvedlksgDy-32" value="" style="edgeStyle=orthogonalEdgeStyle;html=1;verticalAlign=bottom;endArrow=open;endSize=8;strokeColor=#FFFFFF;fontColor=#000000;entryX=0.5;entryY=0;entryDx=0;entryDy=0;" parent="-ehZkE86zxHvedlksgDy-3" source="-ehZkE86zxHvedlksgDy-31" target="-ehZkE86zxHvedlksgDy-33" edge="1">
                    <mxGeometry relative="1" as="geometry">
                        <mxPoint x="160" y="620" as="targetPoint"/>
                    </mxGeometry>
                </mxCell>
                <mxCell id="-ehZkE86zxHvedlksgDy-33" value="Chuyển về trang chủ" style="rounded=1;whiteSpace=wrap;html=1;arcSize=40;fontColor=#000000;fillColor=#ffffc0;strokeColor=none;" parent="-ehZkE86zxHvedlksgDy-3" vertex="1">
                    <mxGeometry x="100" y="600" width="120" height="40" as="geometry"/>
                </mxCell>
                <mxCell id="-ehZkE86zxHvedlksgDy-34" value="" style="edgeStyle=orthogonalEdgeStyle;html=1;verticalAlign=bottom;endArrow=open;endSize=8;strokeColor=#ff0000;fontColor=#000000;entryX=0.5;entryY=0;entryDx=0;entryDy=0;" parent="-ehZkE86zxHvedlksgDy-3" source="-ehZkE86zxHvedlksgDy-33" target="-ehZkE86zxHvedlksgDy-35" edge="1">
                    <mxGeometry relative="1" as="geometry">
                        <mxPoint x="160" y="680" as="targetPoint"/>
                    </mxGeometry>
                </mxCell>
                <mxCell id="-ehZkE86zxHvedlksgDy-35" value="" style="ellipse;html=1;shape=endState;fillColor=#000000;strokeColor=#ff0000;fontColor=#000000;" parent="-ehZkE86zxHvedlksgDy-3" vertex="1">
                    <mxGeometry x="145" y="680" width="30" height="30" as="geometry"/>
                </mxCell>
            </root>
        </mxGraphModel>
    </diagram>
    <diagram id="C7aJdHcupyNuUhrZXNJ8" name="Search">
        <mxGraphModel dx="1658" dy="467" grid="1" gridSize="10" guides="1" tooltips="1" connect="1" arrows="1" fold="1" page="1" pageScale="1" pageWidth="850" pageHeight="1100" math="0" shadow="0">
            <root>
                <mxCell id="0"/>
                <mxCell id="1" parent="0"/>
                <mxCell id="rdrEFXHb8asc_fd9_eaT-1" value="Sơ đồ chức năng tìm kiếm khách sạn" style="swimlane;childLayout=stackLayout;resizeParent=1;resizeParentMax=0;startSize=20;html=1;strokeColor=#f7f7f7;fontColor=#FFFFFF;" parent="1" vertex="1">
                    <mxGeometry x="-109.99999999999955" y="20" width="814.9999999999995" height="640" as="geometry"/>
                </mxCell>
                <mxCell id="rdrEFXHb8asc_fd9_eaT-9" value="" style="edgeStyle=none;html=1;strokeColor=#FFFFFF;fontColor=#000000;" parent="rdrEFXHb8asc_fd9_eaT-1" source="rdrEFXHb8asc_fd9_eaT-6" target="rdrEFXHb8asc_fd9_eaT-8" edge="1">
                    <mxGeometry relative="1" as="geometry"/>
                </mxCell>
                <mxCell id="rdrEFXHb8asc_fd9_eaT-12" value="" style="endArrow=open;endFill=1;endSize=12;html=1;strokeColor=#FFFFFF;fontColor=#000000;exitX=0;exitY=0.5;exitDx=0;exitDy=0;entryX=0.5;entryY=1;entryDx=0;entryDy=0;" parent="rdrEFXHb8asc_fd9_eaT-1" source="rdrEFXHb8asc_fd9_eaT-10" target="rdrEFXHb8asc_fd9_eaT-6" edge="1">
                    <mxGeometry width="160" relative="1" as="geometry">
                        <mxPoint x="249.99999999999955" y="350" as="sourcePoint"/>
                        <mxPoint x="409.99999999999955" y="350" as="targetPoint"/>
                        <Array as="points">
                            <mxPoint x="164.99999999999955" y="310"/>
                        </Array>
                    </mxGeometry>
                </mxCell>
                <mxCell id="rdrEFXHb8asc_fd9_eaT-2" value="User" style="swimlane;startSize=20;html=1;strokeColor=#f7f7f7;fontColor=#FFFFFF;" parent="rdrEFXHb8asc_fd9_eaT-1" vertex="1">
                    <mxGeometry y="20" width="424.99999999999955" height="620" as="geometry"/>
                </mxCell>
                <mxCell id="rdrEFXHb8asc_fd9_eaT-7" value="" style="edgeStyle=none;html=1;strokeColor=#FFFFFF;fontColor=#FFFFFF;" parent="rdrEFXHb8asc_fd9_eaT-2" source="rdrEFXHb8asc_fd9_eaT-5" target="rdrEFXHb8asc_fd9_eaT-6" edge="1">
                    <mxGeometry relative="1" as="geometry"/>
                </mxCell>
                <mxCell id="rdrEFXHb8asc_fd9_eaT-5" value="" style="ellipse;fillColor=strokeColor;strokeColor=#f7f7f7;fontColor=#FFFFFF;" parent="rdrEFXHb8asc_fd9_eaT-2" vertex="1">
                    <mxGeometry x="149.99999999999955" y="40" width="30" height="30" as="geometry"/>
                </mxCell>
                <mxCell id="rdrEFXHb8asc_fd9_eaT-6" value="Nhập thông tin tìm kiếm (tên, địa điểm)" style="rounded=1;whiteSpace=wrap;html=1;fillColor=strokeColor;strokeColor=#f7f7f7;fontColor=#000000;" parent="rdrEFXHb8asc_fd9_eaT-2" vertex="1">
                    <mxGeometry x="104.99999999999955" y="135" width="120" height="60" as="geometry"/>
                </mxCell>
                <mxCell id="rdrEFXHb8asc_fd9_eaT-14" value="Hiện thị kết quả tìm kiếm" style="whiteSpace=wrap;html=1;fillColor=strokeColor;strokeColor=#f7f7f7;fontColor=#000000;rounded=1;" parent="rdrEFXHb8asc_fd9_eaT-2" vertex="1">
                    <mxGeometry x="129.99999999999955" y="400" width="120" height="60" as="geometry"/>
                </mxCell>
                <mxCell id="rdrEFXHb8asc_fd9_eaT-16" value="" style="ellipse;html=1;shape=endState;fillColor=strokeColor;strokeColor=#f7f7f7;fontColor=#f3eded;" parent="rdrEFXHb8asc_fd9_eaT-2" vertex="1">
                    <mxGeometry x="174.99999999999955" y="530" width="30" height="30" as="geometry"/>
                </mxCell>
                <mxCell id="rdrEFXHb8asc_fd9_eaT-17" value="" style="endArrow=classic;html=1;strokeColor=#FFFFFF;fontColor=#f3eded;exitX=0.5;exitY=1;exitDx=0;exitDy=0;entryX=0.5;entryY=0;entryDx=0;entryDy=0;" parent="rdrEFXHb8asc_fd9_eaT-2" source="rdrEFXHb8asc_fd9_eaT-14" target="rdrEFXHb8asc_fd9_eaT-16" edge="1">
                    <mxGeometry width="50" height="50" relative="1" as="geometry">
                        <mxPoint x="269.99999999999955" y="530" as="sourcePoint"/>
                        <mxPoint x="319.99999999999955" y="480" as="targetPoint"/>
                    </mxGeometry>
                </mxCell>
                <mxCell id="rdrEFXHb8asc_fd9_eaT-3" value="System" style="swimlane;startSize=20;html=1;strokeColor=#f7f7f7;fontColor=#FFFFFF;" parent="rdrEFXHb8asc_fd9_eaT-1" vertex="1">
                    <mxGeometry x="424.99999999999955" y="20" width="390" height="620" as="geometry"/>
                </mxCell>
                <mxCell id="rdrEFXHb8asc_fd9_eaT-11" value="" style="edgeStyle=none;html=1;strokeColor=#FFFFFF;fontColor=#000000;" parent="rdrEFXHb8asc_fd9_eaT-3" source="rdrEFXHb8asc_fd9_eaT-8" target="rdrEFXHb8asc_fd9_eaT-10" edge="1">
                    <mxGeometry relative="1" as="geometry"/>
                </mxCell>
                <mxCell id="rdrEFXHb8asc_fd9_eaT-8" value="Ghi nhận thông tin tìm kiếm" style="whiteSpace=wrap;html=1;fillColor=strokeColor;strokeColor=#f7f7f7;fontColor=#000000;rounded=1;" parent="rdrEFXHb8asc_fd9_eaT-3" vertex="1">
                    <mxGeometry x="55" y="135" width="120" height="60" as="geometry"/>
                </mxCell>
                <mxCell id="rdrEFXHb8asc_fd9_eaT-10" value="Tìm kiếm trong database" style="rhombus;whiteSpace=wrap;html=1;fillColor=strokeColor;strokeColor=#f7f7f7;fontColor=#000000;rounded=1;" parent="rdrEFXHb8asc_fd9_eaT-3" vertex="1">
                    <mxGeometry x="55" y="240" width="117.5" height="100" as="geometry"/>
                </mxCell>
                <mxCell id="rdrEFXHb8asc_fd9_eaT-15" value="" style="edgeStyle=none;html=1;strokeColor=#FFFFFF;fontColor=#f3eded;exitX=0.5;exitY=1;exitDx=0;exitDy=0;" parent="rdrEFXHb8asc_fd9_eaT-1" source="rdrEFXHb8asc_fd9_eaT-10" target="rdrEFXHb8asc_fd9_eaT-14" edge="1">
                    <mxGeometry relative="1" as="geometry">
                        <mxPoint x="539.9999999999995" y="370" as="sourcePoint"/>
                    </mxGeometry>
                </mxCell>
                <mxCell id="rdrEFXHb8asc_fd9_eaT-13" value="&lt;font color=&quot;#f3eded&quot;&gt;Không tìm thấy được kết quả&lt;/font&gt;" style="text;html=1;align=center;verticalAlign=middle;resizable=0;points=[];autosize=1;strokeColor=none;fillColor=none;fontColor=#000000;" parent="1" vertex="1">
                    <mxGeometry x="100" y="305" width="180" height="30" as="geometry"/>
                </mxCell>
            </root>
        </mxGraphModel>
    </diagram>
    <diagram id="DA7FtAbLvIrjiPwOs-OV" name="Booking">
        <mxGraphModel dx="808" dy="467" grid="1" gridSize="10" guides="1" tooltips="1" connect="1" arrows="1" fold="1" page="1" pageScale="1" pageWidth="850" pageHeight="1100" math="0" shadow="0">
            <root>
                <mxCell id="0"/>
                <mxCell id="1" parent="0"/>
                <mxCell id="kn81kQRsA43Yj5D7p8f8-1" value="Sơ đồ hoạt động chức năng đặt phòng" style="swimlane;childLayout=stackLayout;resizeParent=1;resizeParentMax=0;startSize=20;html=1;strokeColor=#f7f7f7;fontColor=#f3eded;" parent="1" vertex="1">
                    <mxGeometry x="140.00000000000045" y="30" width="1000" height="1040" as="geometry"/>
                </mxCell>
                <mxCell id="kn81kQRsA43Yj5D7p8f8-2" value="&lt;font color=&quot;#ffffff&quot;&gt;User&lt;/font&gt;" style="swimlane;startSize=20;html=1;strokeColor=#f7f7f7;fontColor=#000000;" parent="kn81kQRsA43Yj5D7p8f8-1" vertex="1">
                    <mxGeometry y="20" width="380" height="1020" as="geometry"/>
                </mxCell>
                <mxCell id="kn81kQRsA43Yj5D7p8f8-8" value="" style="edgeStyle=none;html=1;strokeColor=#FFFFFF;fontColor=#f3eded;" parent="kn81kQRsA43Yj5D7p8f8-2" source="kn81kQRsA43Yj5D7p8f8-6" target="kn81kQRsA43Yj5D7p8f8-7" edge="1">
                    <mxGeometry relative="1" as="geometry"/>
                </mxCell>
                <mxCell id="kn81kQRsA43Yj5D7p8f8-6" value="" style="ellipse;fillColor=strokeColor;strokeColor=#f7f7f7;fontColor=#f3eded;" parent="kn81kQRsA43Yj5D7p8f8-2" vertex="1">
                    <mxGeometry x="104.99999999999955" y="40" width="30" height="30" as="geometry"/>
                </mxCell>
                <mxCell id="kn81kQRsA43Yj5D7p8f8-10" value="" style="edgeStyle=none;html=1;strokeColor=#FFFFFF;fontColor=#FFFFFF;" parent="kn81kQRsA43Yj5D7p8f8-2" source="kn81kQRsA43Yj5D7p8f8-7" target="kn81kQRsA43Yj5D7p8f8-9" edge="1">
                    <mxGeometry relative="1" as="geometry"/>
                </mxCell>
                <mxCell id="kn81kQRsA43Yj5D7p8f8-7" value="&lt;font color=&quot;#000000&quot;&gt;Chọn Khách sạn&lt;/font&gt;" style="rounded=1;whiteSpace=wrap;html=1;fillColor=strokeColor;strokeColor=#f7f7f7;fontColor=#f3eded;" parent="kn81kQRsA43Yj5D7p8f8-2" vertex="1">
                    <mxGeometry x="59.999999999999545" y="100" width="120" height="60" as="geometry"/>
                </mxCell>
                <mxCell id="kn81kQRsA43Yj5D7p8f8-13" value="" style="edgeStyle=none;html=1;strokeColor=#FFFFFF;fontColor=#FFFFFF;" parent="kn81kQRsA43Yj5D7p8f8-2" source="kn81kQRsA43Yj5D7p8f8-9" target="kn81kQRsA43Yj5D7p8f8-12" edge="1">
                    <mxGeometry relative="1" as="geometry"/>
                </mxCell>
                <mxCell id="kn81kQRsA43Yj5D7p8f8-9" value="&lt;font color=&quot;#000000&quot;&gt;Chọn phòng&lt;/font&gt;" style="rounded=1;whiteSpace=wrap;html=1;fillColor=strokeColor;strokeColor=#f7f7f7;fontColor=#f3eded;" parent="kn81kQRsA43Yj5D7p8f8-2" vertex="1">
                    <mxGeometry x="59.999999999999545" y="180" width="120" height="60" as="geometry"/>
                </mxCell>
                <mxCell id="kn81kQRsA43Yj5D7p8f8-15" value="" style="edgeStyle=none;html=1;strokeColor=#FFFFFF;fontColor=#000000;" parent="kn81kQRsA43Yj5D7p8f8-2" source="kn81kQRsA43Yj5D7p8f8-12" target="kn81kQRsA43Yj5D7p8f8-14" edge="1">
                    <mxGeometry relative="1" as="geometry"/>
                </mxCell>
                <mxCell id="kn81kQRsA43Yj5D7p8f8-12" value="Đặt phòng" style="whiteSpace=wrap;html=1;fillColor=strokeColor;strokeColor=#f7f7f7;fontColor=#000000;rounded=1;" parent="kn81kQRsA43Yj5D7p8f8-2" vertex="1">
                    <mxGeometry x="59.999999999999545" y="260" width="120" height="60" as="geometry"/>
                </mxCell>
                <mxCell id="kn81kQRsA43Yj5D7p8f8-14" value="Nhập thông tin liên hệ" style="whiteSpace=wrap;html=1;fillColor=strokeColor;strokeColor=#f7f7f7;fontColor=#000000;rounded=1;" parent="kn81kQRsA43Yj5D7p8f8-2" vertex="1">
                    <mxGeometry x="59.999999999999545" y="340" width="120" height="60" as="geometry"/>
                </mxCell>
                <mxCell id="kn81kQRsA43Yj5D7p8f8-47" value="Nhận email phản hồi xác nhận đặt phòng" style="whiteSpace=wrap;html=1;fillColor=strokeColor;strokeColor=#f7f7f7;fontColor=#000000;rounded=1;" parent="kn81kQRsA43Yj5D7p8f8-2" vertex="1">
                    <mxGeometry x="79.99999999999955" y="740" width="120" height="60" as="geometry"/>
                </mxCell>
                <mxCell id="kn81kQRsA43Yj5D7p8f8-49" value="" style="ellipse;html=1;shape=endState;fillColor=strokeColor;strokeColor=#f7f7f7;fontColor=#FFFFFF;" parent="kn81kQRsA43Yj5D7p8f8-2" vertex="1">
                    <mxGeometry x="124.99999999999955" y="880" width="30" height="30" as="geometry"/>
                </mxCell>
                <mxCell id="kn81kQRsA43Yj5D7p8f8-50" value="" style="html=1;verticalAlign=bottom;labelBackgroundColor=none;endArrow=block;endFill=1;strokeColor=#FFFFFF;fontColor=#FFFFFF;exitX=0.5;exitY=1;exitDx=0;exitDy=0;entryX=0.5;entryY=0;entryDx=0;entryDy=0;" parent="kn81kQRsA43Yj5D7p8f8-2" source="kn81kQRsA43Yj5D7p8f8-47" target="kn81kQRsA43Yj5D7p8f8-49" edge="1">
                    <mxGeometry width="160" relative="1" as="geometry">
                        <mxPoint x="219.99999999999955" y="870" as="sourcePoint"/>
                        <mxPoint x="379.99999999999955" y="870" as="targetPoint"/>
                    </mxGeometry>
                </mxCell>
                <mxCell id="kn81kQRsA43Yj5D7p8f8-4" value="System" style="swimlane;startSize=20;html=1;strokeColor=#f7f7f7;fontColor=#f3eded;" parent="kn81kQRsA43Yj5D7p8f8-1" vertex="1">
                    <mxGeometry x="380" y="20" width="340" height="1020" as="geometry"/>
                </mxCell>
                <mxCell id="kn81kQRsA43Yj5D7p8f8-19" value="" style="edgeStyle=none;html=1;strokeColor=#FFFFFF;fontColor=#000000;" parent="kn81kQRsA43Yj5D7p8f8-4" source="kn81kQRsA43Yj5D7p8f8-16" target="kn81kQRsA43Yj5D7p8f8-18" edge="1">
                    <mxGeometry relative="1" as="geometry"/>
                </mxCell>
                <mxCell id="kn81kQRsA43Yj5D7p8f8-16" value="Nhận thông tin liên hệ" style="whiteSpace=wrap;html=1;fillColor=strokeColor;strokeColor=#f7f7f7;fontColor=#000000;rounded=1;" parent="kn81kQRsA43Yj5D7p8f8-4" vertex="1">
                    <mxGeometry x="80" y="340" width="120" height="60" as="geometry"/>
                </mxCell>
                <mxCell id="kn81kQRsA43Yj5D7p8f8-26" value="" style="edgeStyle=none;html=1;strokeColor=#FFFFFF;fontColor=#FFFFFF;" parent="kn81kQRsA43Yj5D7p8f8-4" source="kn81kQRsA43Yj5D7p8f8-18" target="kn81kQRsA43Yj5D7p8f8-25" edge="1">
                    <mxGeometry relative="1" as="geometry"/>
                </mxCell>
                <mxCell id="kn81kQRsA43Yj5D7p8f8-18" value="Xử lý thông tin liên hệ" style="rhombus;whiteSpace=wrap;html=1;fillColor=strokeColor;strokeColor=#f7f7f7;fontColor=#000000;rounded=1;" parent="kn81kQRsA43Yj5D7p8f8-4" vertex="1">
                    <mxGeometry x="90" y="450" width="100" height="100" as="geometry"/>
                </mxCell>
                <mxCell id="kn81kQRsA43Yj5D7p8f8-25" value="Xác nhận đặt phòng" style="whiteSpace=wrap;html=1;fillColor=strokeColor;strokeColor=#f7f7f7;fontColor=#000000;rounded=1;" parent="kn81kQRsA43Yj5D7p8f8-4" vertex="1">
                    <mxGeometry x="79.99999999999955" y="600" width="120" height="60" as="geometry"/>
                </mxCell>
                <mxCell id="kn81kQRsA43Yj5D7p8f8-29" value="Gữi email xác nhận" style="whiteSpace=wrap;html=1;fillColor=strokeColor;strokeColor=#f7f7f7;fontColor=#000000;rounded=1;" parent="kn81kQRsA43Yj5D7p8f8-4" vertex="1">
                    <mxGeometry x="79.99999999999955" y="740" width="120" height="60" as="geometry"/>
                </mxCell>
                <mxCell id="kn81kQRsA43Yj5D7p8f8-33" value="Hotel" style="swimlane;startSize=20;html=1;strokeColor=#f7f7f7;fontColor=#f3eded;" parent="kn81kQRsA43Yj5D7p8f8-1" vertex="1">
                    <mxGeometry x="720" y="20" width="280" height="1020" as="geometry"/>
                </mxCell>
                <mxCell id="kn81kQRsA43Yj5D7p8f8-45" value="" style="edgeStyle=none;html=1;strokeColor=#FFFFFF;fontColor=#FFFFFF;" parent="kn81kQRsA43Yj5D7p8f8-33" source="kn81kQRsA43Yj5D7p8f8-42" target="kn81kQRsA43Yj5D7p8f8-44" edge="1">
                    <mxGeometry relative="1" as="geometry"/>
                </mxCell>
                <mxCell id="kn81kQRsA43Yj5D7p8f8-42" value="Nhận thông tin đăng phòng" style="whiteSpace=wrap;html=1;fillColor=strokeColor;strokeColor=#f7f7f7;fontColor=#000000;rounded=1;" parent="kn81kQRsA43Yj5D7p8f8-33" vertex="1">
                    <mxGeometry x="70" y="600" width="120" height="60" as="geometry"/>
                </mxCell>
                <mxCell id="kn81kQRsA43Yj5D7p8f8-44" value="Xác nhận và phản hồi lại lên hệ thống" style="whiteSpace=wrap;html=1;fillColor=strokeColor;strokeColor=#f7f7f7;fontColor=#000000;rounded=1;" parent="kn81kQRsA43Yj5D7p8f8-33" vertex="1">
                    <mxGeometry x="70" y="740" width="120" height="60" as="geometry"/>
                </mxCell>
                <mxCell id="kn81kQRsA43Yj5D7p8f8-17" value="" style="edgeStyle=none;html=1;strokeColor=#FFFFFF;fontColor=#000000;" parent="kn81kQRsA43Yj5D7p8f8-1" source="kn81kQRsA43Yj5D7p8f8-14" target="kn81kQRsA43Yj5D7p8f8-16" edge="1">
                    <mxGeometry relative="1" as="geometry"/>
                </mxCell>
                <mxCell id="kn81kQRsA43Yj5D7p8f8-20" value="Thiếu thông&amp;nbsp; tin" style="html=1;verticalAlign=bottom;endArrow=open;dashed=1;endSize=8;strokeColor=#FFFFFF;fontColor=#FFFFFF;entryX=0.45;entryY=1.033;entryDx=0;entryDy=0;entryPerimeter=0;exitX=0;exitY=0.5;exitDx=0;exitDy=0;" parent="kn81kQRsA43Yj5D7p8f8-1" source="kn81kQRsA43Yj5D7p8f8-18" target="kn81kQRsA43Yj5D7p8f8-14" edge="1">
                    <mxGeometry relative="1" as="geometry">
                        <mxPoint x="249.99999999999955" y="480" as="sourcePoint"/>
                        <mxPoint x="169.99999999999955" y="480" as="targetPoint"/>
                        <Array as="points">
                            <mxPoint x="113.99999999999955" y="520"/>
                        </Array>
                    </mxGeometry>
                </mxCell>
                <mxCell id="kn81kQRsA43Yj5D7p8f8-43" value="" style="edgeStyle=none;html=1;strokeColor=#FFFFFF;fontColor=#FFFFFF;" parent="kn81kQRsA43Yj5D7p8f8-1" source="kn81kQRsA43Yj5D7p8f8-25" target="kn81kQRsA43Yj5D7p8f8-42" edge="1">
                    <mxGeometry relative="1" as="geometry"/>
                </mxCell>
                <mxCell id="kn81kQRsA43Yj5D7p8f8-46" value="" style="endArrow=open;endFill=1;endSize=12;html=1;strokeColor=#FFFFFF;fontColor=#FFFFFF;exitX=0;exitY=0.5;exitDx=0;exitDy=0;entryX=1;entryY=0.5;entryDx=0;entryDy=0;" parent="kn81kQRsA43Yj5D7p8f8-1" source="kn81kQRsA43Yj5D7p8f8-44" target="kn81kQRsA43Yj5D7p8f8-29" edge="1">
                    <mxGeometry width="160" relative="1" as="geometry">
                        <mxPoint x="139.99999999999955" y="850" as="sourcePoint"/>
                        <mxPoint x="299.99999999999955" y="850" as="targetPoint"/>
                    </mxGeometry>
                </mxCell>
                <mxCell id="kn81kQRsA43Yj5D7p8f8-48" value="" style="endArrow=open;endFill=1;endSize=12;html=1;strokeColor=#FFFFFF;fontColor=#FFFFFF;exitX=0;exitY=0.5;exitDx=0;exitDy=0;entryX=1;entryY=0.5;entryDx=0;entryDy=0;" parent="kn81kQRsA43Yj5D7p8f8-1" source="kn81kQRsA43Yj5D7p8f8-29" target="kn81kQRsA43Yj5D7p8f8-47" edge="1">
                    <mxGeometry width="160" relative="1" as="geometry">
                        <mxPoint x="129.99999999999955" y="910" as="sourcePoint"/>
                        <mxPoint x="289.99999999999955" y="910" as="targetPoint"/>
                    </mxGeometry>
                </mxCell>
            </root>
        </mxGraphModel>
    </diagram>
    <diagram id="BXB4dqt2P5461uKBLCKr" name="Cancel">
        <mxGraphModel dx="1658" dy="467" grid="1" gridSize="10" guides="1" tooltips="1" connect="1" arrows="1" fold="1" page="1" pageScale="1" pageWidth="850" pageHeight="1100" math="0" shadow="0">
            <root>
                <mxCell id="0"/>
                <mxCell id="1" parent="0"/>
                <mxCell id="-gfmjaC-gHcZax7Jy0Js-1" value="Sơ đồ hoạt động chức năng đặt phòng" style="swimlane;childLayout=stackLayout;resizeParent=1;resizeParentMax=0;startSize=20;html=1;strokeColor=#f7f7f7;fontColor=#f3eded;" parent="1" vertex="1">
                    <mxGeometry x="-829.9999999999995" y="40" width="860" height="620" as="geometry"/>
                </mxCell>
                <mxCell id="-gfmjaC-gHcZax7Jy0Js-2" value="&lt;font color=&quot;#ffffff&quot;&gt;User&lt;/font&gt;" style="swimlane;startSize=20;html=1;strokeColor=#f7f7f7;fontColor=#000000;" parent="-gfmjaC-gHcZax7Jy0Js-1" vertex="1">
                    <mxGeometry y="20" width="580" height="600" as="geometry"/>
                </mxCell>
                <mxCell id="-gfmjaC-gHcZax7Jy0Js-3" value="" style="edgeStyle=none;html=1;strokeColor=#FFFFFF;fontColor=#f3eded;" parent="-gfmjaC-gHcZax7Jy0Js-2" source="-gfmjaC-gHcZax7Jy0Js-4" target="-gfmjaC-gHcZax7Jy0Js-6" edge="1">
                    <mxGeometry relative="1" as="geometry"/>
                </mxCell>
                <mxCell id="-gfmjaC-gHcZax7Jy0Js-4" value="" style="ellipse;fillColor=strokeColor;strokeColor=#f7f7f7;fontColor=#f3eded;" parent="-gfmjaC-gHcZax7Jy0Js-2" vertex="1">
                    <mxGeometry x="104.99999999999955" y="40" width="30" height="30" as="geometry"/>
                </mxCell>
                <mxCell id="-gfmjaC-gHcZax7Jy0Js-5" value="" style="edgeStyle=none;html=1;strokeColor=#FFFFFF;fontColor=#FFFFFF;" parent="-gfmjaC-gHcZax7Jy0Js-2" source="-gfmjaC-gHcZax7Jy0Js-6" target="-gfmjaC-gHcZax7Jy0Js-8" edge="1">
                    <mxGeometry relative="1" as="geometry"/>
                </mxCell>
                <mxCell id="-gfmjaC-gHcZax7Jy0Js-6" value="&lt;font color=&quot;#000000&quot;&gt;Yêu cầu hủy phòng&lt;/font&gt;" style="rounded=1;whiteSpace=wrap;html=1;fillColor=strokeColor;strokeColor=#f7f7f7;fontColor=#f3eded;" parent="-gfmjaC-gHcZax7Jy0Js-2" vertex="1">
                    <mxGeometry x="59.999999999999545" y="100" width="120" height="60" as="geometry"/>
                </mxCell>
                <mxCell id="-gfmjaC-gHcZax7Jy0Js-7" value="" style="edgeStyle=none;html=1;strokeColor=#FFFFFF;fontColor=#FFFFFF;" parent="-gfmjaC-gHcZax7Jy0Js-2" source="-gfmjaC-gHcZax7Jy0Js-8" target="-gfmjaC-gHcZax7Jy0Js-10" edge="1">
                    <mxGeometry relative="1" as="geometry"/>
                </mxCell>
                <mxCell id="-gfmjaC-gHcZax7Jy0Js-8" value="&lt;font color=&quot;#000000&quot;&gt;Điền lý do hủy phòng&lt;/font&gt;" style="rounded=1;whiteSpace=wrap;html=1;fillColor=strokeColor;strokeColor=#f7f7f7;fontColor=#f3eded;" parent="-gfmjaC-gHcZax7Jy0Js-2" vertex="1">
                    <mxGeometry x="59.999999999999545" y="180" width="120" height="60" as="geometry"/>
                </mxCell>
                <mxCell id="-gfmjaC-gHcZax7Jy0Js-10" value="Gữi yêu cầu" style="whiteSpace=wrap;html=1;fillColor=strokeColor;strokeColor=#f7f7f7;fontColor=#000000;rounded=1;" parent="-gfmjaC-gHcZax7Jy0Js-2" vertex="1">
                    <mxGeometry x="59.999999999999545" y="260" width="120" height="60" as="geometry"/>
                </mxCell>
                <mxCell id="-gfmjaC-gHcZax7Jy0Js-13" value="" style="ellipse;html=1;shape=endState;fillColor=strokeColor;strokeColor=#f7f7f7;fontColor=#FFFFFF;" parent="-gfmjaC-gHcZax7Jy0Js-2" vertex="1">
                    <mxGeometry x="104.99999999999955" y="560" width="30" height="30" as="geometry"/>
                </mxCell>
                <mxCell id="-gfmjaC-gHcZax7Jy0Js-14" value="" style="html=1;verticalAlign=bottom;labelBackgroundColor=none;endArrow=block;endFill=1;strokeColor=#FFFFFF;fontColor=#FFFFFF;exitX=0.5;exitY=1;exitDx=0;exitDy=0;entryX=0.5;entryY=0;entryDx=0;entryDy=0;" parent="-gfmjaC-gHcZax7Jy0Js-2" source="-gfmjaC-gHcZax7Jy0Js-36" target="-gfmjaC-gHcZax7Jy0Js-13" edge="1">
                    <mxGeometry width="160" relative="1" as="geometry">
                        <mxPoint x="219.99999999999955" y="870" as="sourcePoint"/>
                        <mxPoint x="379.99999999999955" y="870" as="targetPoint"/>
                    </mxGeometry>
                </mxCell>
                <mxCell id="-gfmjaC-gHcZax7Jy0Js-15" value="System" style="swimlane;startSize=20;html=1;strokeColor=#f7f7f7;fontColor=#f3eded;" parent="-gfmjaC-gHcZax7Jy0Js-2" vertex="1">
                    <mxGeometry x="320" width="260" height="600" as="geometry"/>
                </mxCell>
                <mxCell id="-gfmjaC-gHcZax7Jy0Js-17" value="Chuyển yêu cầu hủy cho khách sạn" style="whiteSpace=wrap;html=1;fillColor=strokeColor;strokeColor=#f7f7f7;fontColor=#000000;rounded=1;" parent="-gfmjaC-gHcZax7Jy0Js-15" vertex="1">
                    <mxGeometry x="80" y="260" width="120" height="60" as="geometry"/>
                </mxCell>
                <mxCell id="-gfmjaC-gHcZax7Jy0Js-34" value="Gữi email xác nhận hủy phòng" style="whiteSpace=wrap;html=1;fillColor=strokeColor;strokeColor=#f7f7f7;fontColor=#000000;rounded=1;" parent="-gfmjaC-gHcZax7Jy0Js-15" vertex="1">
                    <mxGeometry x="80" y="410" width="120" height="60" as="geometry"/>
                </mxCell>
                <mxCell id="-gfmjaC-gHcZax7Jy0Js-26" value="" style="edgeStyle=none;html=1;strokeColor=#FFFFFF;fontColor=#000000;exitX=1;exitY=0.5;exitDx=0;exitDy=0;" parent="-gfmjaC-gHcZax7Jy0Js-2" source="-gfmjaC-gHcZax7Jy0Js-10" target="-gfmjaC-gHcZax7Jy0Js-17" edge="1">
                    <mxGeometry relative="1" as="geometry"/>
                </mxCell>
                <mxCell id="-gfmjaC-gHcZax7Jy0Js-36" value="Nhận email xác nhận hủy thành công" style="whiteSpace=wrap;html=1;fillColor=strokeColor;strokeColor=#f7f7f7;fontColor=#000000;rounded=1;" parent="-gfmjaC-gHcZax7Jy0Js-2" vertex="1">
                    <mxGeometry x="60" y="410" width="120" height="60" as="geometry"/>
                </mxCell>
                <mxCell id="-gfmjaC-gHcZax7Jy0Js-37" value="" style="edgeStyle=none;html=1;strokeColor=#FFFFFF;fontColor=#FFFFFF;" parent="-gfmjaC-gHcZax7Jy0Js-2" source="-gfmjaC-gHcZax7Jy0Js-34" target="-gfmjaC-gHcZax7Jy0Js-36" edge="1">
                    <mxGeometry relative="1" as="geometry"/>
                </mxCell>
                <mxCell id="-gfmjaC-gHcZax7Jy0Js-22" value="Hotel" style="swimlane;startSize=20;html=1;strokeColor=#f7f7f7;fontColor=#f3eded;" parent="-gfmjaC-gHcZax7Jy0Js-1" vertex="1">
                    <mxGeometry x="580" y="20" width="280" height="600" as="geometry"/>
                </mxCell>
                <mxCell id="-gfmjaC-gHcZax7Jy0Js-24" value="Xác nhận hủy phòng cho khác" style="whiteSpace=wrap;html=1;fillColor=strokeColor;strokeColor=#f7f7f7;fontColor=#000000;rounded=1;" parent="-gfmjaC-gHcZax7Jy0Js-22" vertex="1">
                    <mxGeometry x="80" y="410" width="120" height="60" as="geometry"/>
                </mxCell>
                <mxCell id="-gfmjaC-gHcZax7Jy0Js-33" value="" style="edgeStyle=none;html=1;strokeColor=#FFFFFF;fontColor=#FFFFFF;" parent="-gfmjaC-gHcZax7Jy0Js-22" source="-gfmjaC-gHcZax7Jy0Js-31" target="-gfmjaC-gHcZax7Jy0Js-24" edge="1">
                    <mxGeometry relative="1" as="geometry"/>
                </mxCell>
                <mxCell id="-gfmjaC-gHcZax7Jy0Js-31" value="Nhân yêu cầu hủy" style="whiteSpace=wrap;html=1;fillColor=strokeColor;strokeColor=#f7f7f7;fontColor=#000000;rounded=1;" parent="-gfmjaC-gHcZax7Jy0Js-22" vertex="1">
                    <mxGeometry x="80" y="260" width="120" height="60" as="geometry"/>
                </mxCell>
                <mxCell id="-gfmjaC-gHcZax7Jy0Js-32" value="" style="edgeStyle=none;html=1;strokeColor=#FFFFFF;fontColor=#FFFFFF;" parent="-gfmjaC-gHcZax7Jy0Js-1" source="-gfmjaC-gHcZax7Jy0Js-17" target="-gfmjaC-gHcZax7Jy0Js-31" edge="1">
                    <mxGeometry relative="1" as="geometry"/>
                </mxCell>
                <mxCell id="-gfmjaC-gHcZax7Jy0Js-35" value="" style="edgeStyle=none;html=1;strokeColor=#FFFFFF;fontColor=#FFFFFF;" parent="-gfmjaC-gHcZax7Jy0Js-1" source="-gfmjaC-gHcZax7Jy0Js-24" target="-gfmjaC-gHcZax7Jy0Js-34" edge="1">
                    <mxGeometry relative="1" as="geometry"/>
                </mxCell>
            </root>
        </mxGraphModel>
    </diagram>
    <diagram id="fpOEBMcK6FRqffNvBVed" name="Review">
        <mxGraphModel dx="808" dy="467" grid="1" gridSize="10" guides="1" tooltips="1" connect="1" arrows="1" fold="1" page="1" pageScale="1" pageWidth="850" pageHeight="1100" math="0" shadow="0">
            <root>
                <mxCell id="0"/>
                <mxCell id="1" parent="0"/>
                <mxCell id="QcjIfY4uD2zkUO5hpNwZ-1" value="Sơ đồ hoạt động chức năng nhận xét" style="swimlane;childLayout=stackLayout;resizeParent=1;resizeParentMax=0;startSize=20;html=1;strokeColor=#f7f7f7;fontColor=#FFFFFF;" parent="1" vertex="1">
                    <mxGeometry x="160.00000000000045" y="20" width="400" height="480" as="geometry"/>
                </mxCell>
                <mxCell id="QcjIfY4uD2zkUO5hpNwZ-2" value="Customer" style="swimlane;startSize=20;html=1;strokeColor=#f7f7f7;fontColor=#FFFFFF;" parent="QcjIfY4uD2zkUO5hpNwZ-1" vertex="1">
                    <mxGeometry y="20" width="120" height="460" as="geometry"/>
                </mxCell>
                <mxCell id="-EqhF9hqkQVG9u36oz6Y-9" value="" style="edgeStyle=none;html=1;strokeColor=#FFFFFF;fontColor=#000000;" parent="QcjIfY4uD2zkUO5hpNwZ-2" source="-EqhF9hqkQVG9u36oz6Y-6" target="-EqhF9hqkQVG9u36oz6Y-8" edge="1">
                    <mxGeometry relative="1" as="geometry"/>
                </mxCell>
                <mxCell id="-EqhF9hqkQVG9u36oz6Y-6" value="Nhận phiếu đánh giá" style="whiteSpace=wrap;html=1;fillColor=strokeColor;strokeColor=#f7f7f7;fontColor=#000000;rounded=1;" parent="QcjIfY4uD2zkUO5hpNwZ-2" vertex="1">
                    <mxGeometry x="20" y="90" width="75" height="40" as="geometry"/>
                </mxCell>
                <mxCell id="-EqhF9hqkQVG9u36oz6Y-13" value="" style="edgeStyle=none;html=1;strokeColor=#FFFFFF;fontColor=#000000;" parent="QcjIfY4uD2zkUO5hpNwZ-2" source="-EqhF9hqkQVG9u36oz6Y-8" target="-EqhF9hqkQVG9u36oz6Y-12" edge="1">
                    <mxGeometry relative="1" as="geometry"/>
                </mxCell>
                <mxCell id="-EqhF9hqkQVG9u36oz6Y-8" value="Đánh giá" style="whiteSpace=wrap;html=1;fillColor=strokeColor;strokeColor=#f7f7f7;fontColor=#000000;rounded=1;" parent="QcjIfY4uD2zkUO5hpNwZ-2" vertex="1">
                    <mxGeometry x="20" y="170" width="72.5" height="40" as="geometry"/>
                </mxCell>
                <mxCell id="-EqhF9hqkQVG9u36oz6Y-12" value="Gữi đánh giá" style="whiteSpace=wrap;html=1;fillColor=strokeColor;strokeColor=#f7f7f7;fontColor=#000000;rounded=1;" parent="QcjIfY4uD2zkUO5hpNwZ-2" vertex="1">
                    <mxGeometry x="20" y="240" width="70" height="40" as="geometry"/>
                </mxCell>
                <mxCell id="QcjIfY4uD2zkUO5hpNwZ-3" value="System" style="swimlane;startSize=20;html=1;strokeColor=#f7f7f7;fontColor=#FFFFFF;" parent="QcjIfY4uD2zkUO5hpNwZ-1" vertex="1">
                    <mxGeometry x="120" y="20" width="160" height="460" as="geometry"/>
                </mxCell>
                <mxCell id="-EqhF9hqkQVG9u36oz6Y-4" value="Gữi phiếu đánh giá và nhận xét sau khi checkout" style="rounded=1;whiteSpace=wrap;html=1;fillColor=strokeColor;strokeColor=#f7f7f7;fontColor=#000000;" parent="QcjIfY4uD2zkUO5hpNwZ-3" vertex="1">
                    <mxGeometry x="25" y="90" width="107.5" height="50" as="geometry"/>
                </mxCell>
                <mxCell id="-EqhF9hqkQVG9u36oz6Y-18" value="" style="edgeStyle=none;html=1;strokeColor=#FFFFFF;fontColor=#000000;" parent="QcjIfY4uD2zkUO5hpNwZ-3" source="-EqhF9hqkQVG9u36oz6Y-14" target="-EqhF9hqkQVG9u36oz6Y-17" edge="1">
                    <mxGeometry relative="1" as="geometry"/>
                </mxCell>
                <mxCell id="-EqhF9hqkQVG9u36oz6Y-14" value="Ghi nhận đánh giá" style="whiteSpace=wrap;html=1;fillColor=strokeColor;strokeColor=#f7f7f7;fontColor=#000000;rounded=1;" parent="QcjIfY4uD2zkUO5hpNwZ-3" vertex="1">
                    <mxGeometry x="30" y="240" width="70" height="40" as="geometry"/>
                </mxCell>
                <mxCell id="-EqhF9hqkQVG9u36oz6Y-17" value="Phản hồi lại cho khách sạn" style="whiteSpace=wrap;html=1;fillColor=strokeColor;strokeColor=#f7f7f7;fontColor=#000000;rounded=1;" parent="QcjIfY4uD2zkUO5hpNwZ-3" vertex="1">
                    <mxGeometry x="25" y="330" width="80" height="50" as="geometry"/>
                </mxCell>
                <mxCell id="QcjIfY4uD2zkUO5hpNwZ-4" value="Hotel" style="swimlane;startSize=20;html=1;strokeColor=#f7f7f7;fontColor=#FFFFFF;" parent="QcjIfY4uD2zkUO5hpNwZ-1" vertex="1">
                    <mxGeometry x="280" y="20" width="120" height="460" as="geometry"/>
                </mxCell>
                <mxCell id="-EqhF9hqkQVG9u36oz6Y-19" value="Nhận phản hồi" style="whiteSpace=wrap;html=1;fillColor=strokeColor;strokeColor=#f7f7f7;fontColor=#000000;rounded=1;" parent="QcjIfY4uD2zkUO5hpNwZ-4" vertex="1">
                    <mxGeometry x="20" y="330" width="80" height="50" as="geometry"/>
                </mxCell>
                <mxCell id="-EqhF9hqkQVG9u36oz6Y-21" value="" style="ellipse;html=1;shape=endState;fillColor=strokeColor;strokeColor=#f7f7f7;fontColor=#000000;" parent="QcjIfY4uD2zkUO5hpNwZ-4" vertex="1">
                    <mxGeometry x="44.999999999999545" y="420" width="30" height="30" as="geometry"/>
                </mxCell>
                <mxCell id="-EqhF9hqkQVG9u36oz6Y-22" value="" style="html=1;verticalAlign=bottom;labelBackgroundColor=none;endArrow=block;endFill=1;strokeColor=#FFFFFF;fontColor=#000000;exitX=0.5;exitY=1;exitDx=0;exitDy=0;entryX=0.5;entryY=0;entryDx=0;entryDy=0;" parent="QcjIfY4uD2zkUO5hpNwZ-4" source="-EqhF9hqkQVG9u36oz6Y-19" target="-EqhF9hqkQVG9u36oz6Y-21" edge="1">
                    <mxGeometry width="160" relative="1" as="geometry">
                        <mxPoint x="19.999999999999545" y="400" as="sourcePoint"/>
                        <mxPoint x="179.99999999999955" y="400" as="targetPoint"/>
                    </mxGeometry>
                </mxCell>
                <mxCell id="-EqhF9hqkQVG9u36oz6Y-24" value="" style="edgeStyle=none;html=1;strokeColor=#FFFFFF;fontColor=#000000;" parent="QcjIfY4uD2zkUO5hpNwZ-4" source="-EqhF9hqkQVG9u36oz6Y-1" target="-EqhF9hqkQVG9u36oz6Y-23" edge="1">
                    <mxGeometry relative="1" as="geometry"/>
                </mxCell>
                <mxCell id="-EqhF9hqkQVG9u36oz6Y-1" value="" style="ellipse;fillColor=strokeColor;strokeColor=#f7f7f7;fontColor=#FFFFFF;" parent="QcjIfY4uD2zkUO5hpNwZ-4" vertex="1">
                    <mxGeometry x="39.999999999999545" y="30" width="30" height="30" as="geometry"/>
                </mxCell>
                <mxCell id="-EqhF9hqkQVG9u36oz6Y-23" value="Xác nhận khách đã checkout" style="rounded=1;whiteSpace=wrap;html=1;fillColor=strokeColor;strokeColor=#f7f7f7;fontColor=#000000;" parent="QcjIfY4uD2zkUO5hpNwZ-4" vertex="1">
                    <mxGeometry x="12.5" y="90" width="87.5" height="50" as="geometry"/>
                </mxCell>
                <mxCell id="-EqhF9hqkQVG9u36oz6Y-7" value="" style="edgeStyle=none;html=1;strokeColor=#FFFFFF;fontColor=#000000;" parent="QcjIfY4uD2zkUO5hpNwZ-1" source="-EqhF9hqkQVG9u36oz6Y-4" target="-EqhF9hqkQVG9u36oz6Y-6" edge="1">
                    <mxGeometry relative="1" as="geometry"/>
                </mxCell>
                <mxCell id="-EqhF9hqkQVG9u36oz6Y-15" value="" style="edgeStyle=none;html=1;strokeColor=#FFFFFF;fontColor=#000000;" parent="QcjIfY4uD2zkUO5hpNwZ-1" source="-EqhF9hqkQVG9u36oz6Y-12" target="-EqhF9hqkQVG9u36oz6Y-14" edge="1">
                    <mxGeometry relative="1" as="geometry"/>
                </mxCell>
                <mxCell id="-EqhF9hqkQVG9u36oz6Y-20" value="" style="edgeStyle=none;html=1;strokeColor=#FFFFFF;fontColor=#000000;" parent="QcjIfY4uD2zkUO5hpNwZ-1" source="-EqhF9hqkQVG9u36oz6Y-17" target="-EqhF9hqkQVG9u36oz6Y-19" edge="1">
                    <mxGeometry relative="1" as="geometry"/>
                </mxCell>
                <mxCell id="-EqhF9hqkQVG9u36oz6Y-25" value="" style="html=1;verticalAlign=bottom;labelBackgroundColor=none;endArrow=block;endFill=1;strokeColor=#FFFFFF;fontColor=#000000;exitX=0;exitY=0.5;exitDx=0;exitDy=0;entryX=1;entryY=0.5;entryDx=0;entryDy=0;" parent="QcjIfY4uD2zkUO5hpNwZ-1" source="-EqhF9hqkQVG9u36oz6Y-23" target="-EqhF9hqkQVG9u36oz6Y-4" edge="1">
                    <mxGeometry width="160" relative="1" as="geometry">
                        <mxPoint x="199.99999999999955" y="180" as="sourcePoint"/>
                        <mxPoint x="359.99999999999955" y="180" as="targetPoint"/>
                    </mxGeometry>
                </mxCell>
            </root>
        </mxGraphModel>
    </diagram>
</mxfile>